<mxfile host="app.diagrams.net" agent="Mozilla/5.0 (Macintosh; Intel Mac OS X 10_15_7) AppleWebKit/605.1.15 (KHTML, like Gecko) Version/18.4 Safari/605.1.15" version="27.0.3">
  <diagram name="Page-1" id="xq8FAMmi_Xxy_Z6WQ6ym">
    <mxGraphModel dx="1426" dy="832" grid="1" gridSize="10" guides="1" tooltips="1" connect="1" arrows="1" fold="1" page="1" pageScale="1" pageWidth="827" pageHeight="1169" math="0" shadow="0">
      <root>
        <mxCell id="0" />
        <mxCell id="1" parent="0" />
        <mxCell id="cUrbjFMUs0zwYNMhEoSF-1" value="Usuario no registrado" style="shape=umlActor;verticalLabelPosition=bottom;verticalAlign=top;html=1;outlineConnect=0;" parent="1" vertex="1">
          <mxGeometry x="40" y="90" width="40" height="80" as="geometry" />
        </mxCell>
        <mxCell id="cUrbjFMUs0zwYNMhEoSF-2" value="Usuario registrado" style="shape=umlActor;verticalLabelPosition=bottom;verticalAlign=top;html=1;outlineConnect=0;" parent="1" vertex="1">
          <mxGeometry x="40" y="360" width="40" height="80" as="geometry" />
        </mxCell>
        <mxCell id="cUrbjFMUs0zwYNMhEoSF-5" value="" style="rounded=0;whiteSpace=wrap;html=1;rotation=90;" parent="1" vertex="1">
          <mxGeometry x="122.5" y="-12.5" width="935" height="1017.5" as="geometry" />
        </mxCell>
        <mxCell id="cUrbjFMUs0zwYNMhEoSF-6" value="Log up/log in" style="ellipse;whiteSpace=wrap;html=1;" parent="1" vertex="1">
          <mxGeometry x="680" y="37.5" width="120" height="80" as="geometry" />
        </mxCell>
        <mxCell id="cUrbjFMUs0zwYNMhEoSF-8" value="" style="endArrow=none;html=1;rounded=0;" parent="1" source="cUrbjFMUs0zwYNMhEoSF-1" target="cUrbjFMUs0zwYNMhEoSF-6" edge="1">
          <mxGeometry width="50" height="50" relative="1" as="geometry">
            <mxPoint x="20" y="700" as="sourcePoint" />
            <mxPoint x="70" y="650" as="targetPoint" />
          </mxGeometry>
        </mxCell>
        <mxCell id="cUrbjFMUs0zwYNMhEoSF-9" value="" style="endArrow=none;html=1;rounded=0;" parent="1" source="cUrbjFMUs0zwYNMhEoSF-2" target="cUrbjFMUs0zwYNMhEoSF-6" edge="1">
          <mxGeometry width="50" height="50" relative="1" as="geometry">
            <mxPoint x="-10" y="635" as="sourcePoint" />
            <mxPoint x="40" y="585" as="targetPoint" />
          </mxGeometry>
        </mxCell>
        <mxCell id="cUrbjFMUs0zwYNMhEoSF-10" value="Create training" style="ellipse;whiteSpace=wrap;html=1;" parent="1" vertex="1">
          <mxGeometry x="587" y="210" width="120" height="80" as="geometry" />
        </mxCell>
        <mxCell id="cUrbjFMUs0zwYNMhEoSF-11" value="Edit training" style="ellipse;whiteSpace=wrap;html=1;" parent="1" vertex="1">
          <mxGeometry x="760" y="230" width="120" height="80" as="geometry" />
        </mxCell>
        <mxCell id="cUrbjFMUs0zwYNMhEoSF-12" value="Delete training" style="ellipse;whiteSpace=wrap;html=1;" parent="1" vertex="1">
          <mxGeometry x="587" y="310" width="120" height="80" as="geometry" />
        </mxCell>
        <mxCell id="cUrbjFMUs0zwYNMhEoSF-15" value="Verify credentials" style="ellipse;whiteSpace=wrap;html=1;" parent="1" vertex="1">
          <mxGeometry x="960" y="37.5" width="120" height="80" as="geometry" />
        </mxCell>
        <mxCell id="cUrbjFMUs0zwYNMhEoSF-16" value="Show error message" style="ellipse;whiteSpace=wrap;html=1;" parent="1" vertex="1">
          <mxGeometry x="960" y="142.5" width="120" height="80" as="geometry" />
        </mxCell>
        <mxCell id="cUrbjFMUs0zwYNMhEoSF-19" value="" style="endArrow=classic;html=1;rounded=0;dashed=1;" parent="1" source="cUrbjFMUs0zwYNMhEoSF-6" target="cUrbjFMUs0zwYNMhEoSF-15" edge="1">
          <mxGeometry width="50" height="50" relative="1" as="geometry">
            <mxPoint x="420" y="790" as="sourcePoint" />
            <mxPoint x="470" y="740" as="targetPoint" />
          </mxGeometry>
        </mxCell>
        <mxCell id="cUrbjFMUs0zwYNMhEoSF-21" value="&amp;lt;&amp;lt;include&amp;gt;&amp;gt;" style="edgeLabel;html=1;align=center;verticalAlign=middle;resizable=0;points=[];" parent="cUrbjFMUs0zwYNMhEoSF-19" vertex="1" connectable="0">
          <mxGeometry x="0.2833" relative="1" as="geometry">
            <mxPoint as="offset" />
          </mxGeometry>
        </mxCell>
        <mxCell id="cUrbjFMUs0zwYNMhEoSF-20" value="" style="endArrow=classic;html=1;rounded=0;dashed=1;" parent="1" source="cUrbjFMUs0zwYNMhEoSF-16" target="cUrbjFMUs0zwYNMhEoSF-6" edge="1">
          <mxGeometry width="50" height="50" relative="1" as="geometry">
            <mxPoint x="310.00430925489053" y="749.9974072604274" as="sourcePoint" />
            <mxPoint x="559.9705599058686" y="823.0772466392117" as="targetPoint" />
          </mxGeometry>
        </mxCell>
        <mxCell id="cUrbjFMUs0zwYNMhEoSF-22" value="&amp;lt;&amp;lt;extends&amp;gt;" style="edgeLabel;html=1;align=center;verticalAlign=middle;resizable=0;points=[];" parent="cUrbjFMUs0zwYNMhEoSF-20" vertex="1" connectable="0">
          <mxGeometry x="-0.2058" y="-1" relative="1" as="geometry">
            <mxPoint as="offset" />
          </mxGeometry>
        </mxCell>
        <mxCell id="cUrbjFMUs0zwYNMhEoSF-27" value="" style="endArrow=none;html=1;rounded=0;" parent="1" source="cUrbjFMUs0zwYNMhEoSF-2" target="cUrbjFMUs0zwYNMhEoSF-12" edge="1">
          <mxGeometry width="50" height="50" relative="1" as="geometry">
            <mxPoint x="120" y="820" as="sourcePoint" />
            <mxPoint x="170" y="770" as="targetPoint" />
          </mxGeometry>
        </mxCell>
        <mxCell id="cUrbjFMUs0zwYNMhEoSF-28" value="" style="endArrow=none;html=1;rounded=0;" parent="1" source="cUrbjFMUs0zwYNMhEoSF-11" target="cUrbjFMUs0zwYNMhEoSF-2" edge="1">
          <mxGeometry width="50" height="50" relative="1" as="geometry">
            <mxPoint x="130" y="830" as="sourcePoint" />
            <mxPoint x="180" y="780" as="targetPoint" />
          </mxGeometry>
        </mxCell>
        <mxCell id="cUrbjFMUs0zwYNMhEoSF-30" value="" style="endArrow=none;html=1;rounded=0;" parent="1" source="cUrbjFMUs0zwYNMhEoSF-2" target="cUrbjFMUs0zwYNMhEoSF-10" edge="1">
          <mxGeometry width="50" height="50" relative="1" as="geometry">
            <mxPoint x="130" y="830" as="sourcePoint" />
            <mxPoint x="180" y="780" as="targetPoint" />
          </mxGeometry>
        </mxCell>
        <mxCell id="AQvaxleU38DBK2-0zEHV-1" value="Show training&lt;div&gt;detail&lt;/div&gt;" style="ellipse;whiteSpace=wrap;html=1;" vertex="1" parent="1">
          <mxGeometry x="960" y="370" width="120" height="80" as="geometry" />
        </mxCell>
        <mxCell id="AQvaxleU38DBK2-0zEHV-2" value="Show training&lt;div&gt;list&lt;/div&gt;" style="ellipse;whiteSpace=wrap;html=1;" vertex="1" parent="1">
          <mxGeometry x="707" y="370" width="120" height="80" as="geometry" />
        </mxCell>
        <mxCell id="AQvaxleU38DBK2-0zEHV-4" value="" style="endArrow=none;html=1;rounded=0;" edge="1" parent="1" source="cUrbjFMUs0zwYNMhEoSF-2" target="AQvaxleU38DBK2-0zEHV-2">
          <mxGeometry width="50" height="50" relative="1" as="geometry">
            <mxPoint x="360" y="480" as="sourcePoint" />
            <mxPoint x="910" y="437" as="targetPoint" />
          </mxGeometry>
        </mxCell>
        <mxCell id="AQvaxleU38DBK2-0zEHV-5" value="" style="endArrow=classic;html=1;rounded=0;dashed=1;" edge="1" parent="1" source="AQvaxleU38DBK2-0zEHV-2" target="AQvaxleU38DBK2-0zEHV-1">
          <mxGeometry width="50" height="50" relative="1" as="geometry">
            <mxPoint x="718" y="505" as="sourcePoint" />
            <mxPoint x="880" y="484" as="targetPoint" />
          </mxGeometry>
        </mxCell>
        <mxCell id="AQvaxleU38DBK2-0zEHV-6" value="&amp;lt;&amp;lt;include&amp;gt;&amp;gt;" style="edgeLabel;html=1;align=center;verticalAlign=middle;resizable=0;points=[];" vertex="1" connectable="0" parent="AQvaxleU38DBK2-0zEHV-5">
          <mxGeometry x="0.2833" relative="1" as="geometry">
            <mxPoint as="offset" />
          </mxGeometry>
        </mxCell>
        <mxCell id="AQvaxleU38DBK2-0zEHV-7" value="Create session" style="ellipse;whiteSpace=wrap;html=1;" vertex="1" parent="1">
          <mxGeometry x="510" y="450" width="120" height="80" as="geometry" />
        </mxCell>
        <mxCell id="AQvaxleU38DBK2-0zEHV-8" value="Edit session" style="ellipse;whiteSpace=wrap;html=1;" vertex="1" parent="1">
          <mxGeometry x="760" y="580" width="120" height="80" as="geometry" />
        </mxCell>
        <mxCell id="AQvaxleU38DBK2-0zEHV-9" value="Delete session" style="ellipse;whiteSpace=wrap;html=1;" vertex="1" parent="1">
          <mxGeometry x="510" y="580" width="120" height="80" as="geometry" />
        </mxCell>
        <mxCell id="AQvaxleU38DBK2-0zEHV-10" value="Show session&lt;div&gt;detail&lt;/div&gt;" style="ellipse;whiteSpace=wrap;html=1;" vertex="1" parent="1">
          <mxGeometry x="760" y="670" width="120" height="80" as="geometry" />
        </mxCell>
        <mxCell id="AQvaxleU38DBK2-0zEHV-11" value="Show session&lt;div&gt;list&lt;/div&gt;" style="ellipse;whiteSpace=wrap;html=1;" vertex="1" parent="1">
          <mxGeometry x="510" y="670" width="120" height="80" as="geometry" />
        </mxCell>
        <mxCell id="AQvaxleU38DBK2-0zEHV-12" value="Create exercise" style="ellipse;whiteSpace=wrap;html=1;" vertex="1" parent="1">
          <mxGeometry x="220" y="730" width="120" height="80" as="geometry" />
        </mxCell>
        <mxCell id="AQvaxleU38DBK2-0zEHV-13" value="Edit exercise" style="ellipse;whiteSpace=wrap;html=1;" vertex="1" parent="1">
          <mxGeometry x="360" y="780" width="120" height="80" as="geometry" />
        </mxCell>
        <mxCell id="AQvaxleU38DBK2-0zEHV-14" value="Delete exercise" style="ellipse;whiteSpace=wrap;html=1;" vertex="1" parent="1">
          <mxGeometry x="90" y="780" width="120" height="80" as="geometry" />
        </mxCell>
        <mxCell id="AQvaxleU38DBK2-0zEHV-15" value="Show exercise&lt;div&gt;detail&lt;/div&gt;" style="ellipse;whiteSpace=wrap;html=1;" vertex="1" parent="1">
          <mxGeometry x="480" y="850" width="120" height="80" as="geometry" />
        </mxCell>
        <mxCell id="AQvaxleU38DBK2-0zEHV-16" value="Show exercise&lt;div&gt;list&lt;/div&gt;" style="ellipse;whiteSpace=wrap;html=1;" vertex="1" parent="1">
          <mxGeometry x="190" y="850" width="120" height="80" as="geometry" />
        </mxCell>
        <mxCell id="AQvaxleU38DBK2-0zEHV-17" value="Delete profile" style="ellipse;whiteSpace=wrap;html=1;" vertex="1" parent="1">
          <mxGeometry x="354" y="127.5" width="120" height="80" as="geometry" />
        </mxCell>
        <mxCell id="AQvaxleU38DBK2-0zEHV-18" value="Edit profile" style="ellipse;whiteSpace=wrap;html=1;" vertex="1" parent="1">
          <mxGeometry x="220" y="127.5" width="120" height="80" as="geometry" />
        </mxCell>
        <mxCell id="AQvaxleU38DBK2-0zEHV-19" value="" style="endArrow=none;html=1;rounded=0;" edge="1" parent="1" source="cUrbjFMUs0zwYNMhEoSF-2" target="AQvaxleU38DBK2-0zEHV-17">
          <mxGeometry width="50" height="50" relative="1" as="geometry">
            <mxPoint x="122.5" y="550" as="sourcePoint" />
            <mxPoint x="733.5" y="260" as="targetPoint" />
          </mxGeometry>
        </mxCell>
        <mxCell id="AQvaxleU38DBK2-0zEHV-20" value="" style="endArrow=none;html=1;rounded=0;" edge="1" parent="1" source="cUrbjFMUs0zwYNMhEoSF-2" target="AQvaxleU38DBK2-0zEHV-18">
          <mxGeometry width="50" height="50" relative="1" as="geometry">
            <mxPoint x="100" y="411" as="sourcePoint" />
            <mxPoint x="711" y="121" as="targetPoint" />
          </mxGeometry>
        </mxCell>
        <mxCell id="AQvaxleU38DBK2-0zEHV-21" value="" style="endArrow=none;html=1;rounded=0;" edge="1" parent="1" source="cUrbjFMUs0zwYNMhEoSF-2" target="AQvaxleU38DBK2-0zEHV-7">
          <mxGeometry width="50" height="50" relative="1" as="geometry">
            <mxPoint x="110" y="421" as="sourcePoint" />
            <mxPoint x="721" y="131" as="targetPoint" />
          </mxGeometry>
        </mxCell>
        <mxCell id="AQvaxleU38DBK2-0zEHV-22" value="" style="endArrow=none;html=1;rounded=0;" edge="1" parent="1" source="cUrbjFMUs0zwYNMhEoSF-2" target="AQvaxleU38DBK2-0zEHV-8">
          <mxGeometry width="50" height="50" relative="1" as="geometry">
            <mxPoint x="120" y="431" as="sourcePoint" />
            <mxPoint x="731" y="141" as="targetPoint" />
          </mxGeometry>
        </mxCell>
        <mxCell id="AQvaxleU38DBK2-0zEHV-23" value="" style="endArrow=none;html=1;rounded=0;" edge="1" parent="1" source="cUrbjFMUs0zwYNMhEoSF-2" target="AQvaxleU38DBK2-0zEHV-9">
          <mxGeometry width="50" height="50" relative="1" as="geometry">
            <mxPoint x="130" y="441" as="sourcePoint" />
            <mxPoint x="741" y="151" as="targetPoint" />
          </mxGeometry>
        </mxCell>
        <mxCell id="AQvaxleU38DBK2-0zEHV-24" value="" style="endArrow=none;html=1;rounded=0;" edge="1" parent="1" source="cUrbjFMUs0zwYNMhEoSF-2" target="AQvaxleU38DBK2-0zEHV-11">
          <mxGeometry width="50" height="50" relative="1" as="geometry">
            <mxPoint x="140" y="451" as="sourcePoint" />
            <mxPoint x="751" y="161" as="targetPoint" />
          </mxGeometry>
        </mxCell>
        <mxCell id="AQvaxleU38DBK2-0zEHV-25" value="" style="endArrow=none;html=1;rounded=0;" edge="1" parent="1" source="cUrbjFMUs0zwYNMhEoSF-2" target="AQvaxleU38DBK2-0zEHV-12">
          <mxGeometry width="50" height="50" relative="1" as="geometry">
            <mxPoint x="150" y="461" as="sourcePoint" />
            <mxPoint x="761" y="171" as="targetPoint" />
          </mxGeometry>
        </mxCell>
        <mxCell id="AQvaxleU38DBK2-0zEHV-26" value="" style="endArrow=none;html=1;rounded=0;" edge="1" parent="1" source="cUrbjFMUs0zwYNMhEoSF-2" target="AQvaxleU38DBK2-0zEHV-13">
          <mxGeometry width="50" height="50" relative="1" as="geometry">
            <mxPoint x="160" y="471" as="sourcePoint" />
            <mxPoint x="771" y="181" as="targetPoint" />
          </mxGeometry>
        </mxCell>
        <mxCell id="AQvaxleU38DBK2-0zEHV-27" value="" style="endArrow=none;html=1;rounded=0;" edge="1" parent="1" source="cUrbjFMUs0zwYNMhEoSF-2" target="AQvaxleU38DBK2-0zEHV-16">
          <mxGeometry width="50" height="50" relative="1" as="geometry">
            <mxPoint x="170" y="481" as="sourcePoint" />
            <mxPoint x="781" y="191" as="targetPoint" />
          </mxGeometry>
        </mxCell>
        <mxCell id="AQvaxleU38DBK2-0zEHV-28" value="" style="endArrow=none;html=1;rounded=0;" edge="1" parent="1" source="cUrbjFMUs0zwYNMhEoSF-2" target="AQvaxleU38DBK2-0zEHV-14">
          <mxGeometry width="50" height="50" relative="1" as="geometry">
            <mxPoint x="180" y="491" as="sourcePoint" />
            <mxPoint x="791" y="201" as="targetPoint" />
          </mxGeometry>
        </mxCell>
        <mxCell id="AQvaxleU38DBK2-0zEHV-29" value="" style="endArrow=classic;html=1;rounded=0;dashed=1;" edge="1" parent="1" source="AQvaxleU38DBK2-0zEHV-11" target="AQvaxleU38DBK2-0zEHV-10">
          <mxGeometry width="50" height="50" relative="1" as="geometry">
            <mxPoint x="888" y="309" as="sourcePoint" />
            <mxPoint x="973" y="291" as="targetPoint" />
          </mxGeometry>
        </mxCell>
        <mxCell id="AQvaxleU38DBK2-0zEHV-30" value="&amp;lt;&amp;lt;include&amp;gt;&amp;gt;" style="edgeLabel;html=1;align=center;verticalAlign=middle;resizable=0;points=[];" vertex="1" connectable="0" parent="AQvaxleU38DBK2-0zEHV-29">
          <mxGeometry x="0.2833" relative="1" as="geometry">
            <mxPoint as="offset" />
          </mxGeometry>
        </mxCell>
        <mxCell id="AQvaxleU38DBK2-0zEHV-31" value="" style="endArrow=classic;html=1;rounded=0;dashed=1;" edge="1" parent="1" source="AQvaxleU38DBK2-0zEHV-16" target="AQvaxleU38DBK2-0zEHV-15">
          <mxGeometry width="50" height="50" relative="1" as="geometry">
            <mxPoint x="898" y="319" as="sourcePoint" />
            <mxPoint x="983" y="301" as="targetPoint" />
          </mxGeometry>
        </mxCell>
        <mxCell id="AQvaxleU38DBK2-0zEHV-32" value="&amp;lt;&amp;lt;include&amp;gt;&amp;gt;" style="edgeLabel;html=1;align=center;verticalAlign=middle;resizable=0;points=[];" vertex="1" connectable="0" parent="AQvaxleU38DBK2-0zEHV-31">
          <mxGeometry x="0.2833" relative="1" as="geometry">
            <mxPoint as="offset" />
          </mxGeometry>
        </mxCell>
      </root>
    </mxGraphModel>
  </diagram>
</mxfile>
